<svg width="111" height="41" viewBox="0 0 111 41" fill="none" xmlns="http://www.w3.org/2000/svg">
<path fill-rule="evenodd" clip-rule="evenodd" d="M22.5259 18.8868C24.215 18.8868 25.428 18.5298 26.1651 17.8157C26.9021 17.1017 27.3013 15.9155 27.3628 14.2572C27.4242 12.7524 27.4549 11.1516 27.4549 9.45489C27.4549 7.75816 27.4242 6.14203 27.3628 4.60653C27.3013 2.96353 26.9021 1.78503 26.1651 1.07102C25.428 0.357006 24.215 0 22.5259 0C20.8369 0 19.6123 0.357006 18.8522 1.07102C18.0921 1.78503 17.6967 2.96353 17.666 4.60653C17.6353 6.11132 17.62 7.71977 17.62 9.43186L17.6202 9.79715C17.6222 11.3732 17.6375 12.8599 17.666 14.2572C17.6967 15.9155 18.0921 17.1017 18.8522 17.8157C19.6123 18.5298 20.8369 18.8868 22.5259 18.8868ZM3.91555 18.6564V12.9904L3.27063 3.27063H3.86948L4.85989 13.2207L6.26488 18.6564H9.97313L11.4012 13.2207L12.3685 3.27063H12.9904L12.3225 12.9904V18.6564H15.7774V0.230326H10.2495L8.70633 7.20921L8.42994 15.6161H7.83109L7.53167 7.20921L6.01152 0.230326H0.460653V18.6564H3.91555ZM21.1209 14.9021C21.1516 15.6852 21.62 16.0768 22.5259 16.0768C23.4165 16.0768 23.8772 15.6852 23.9079 14.9021C23.9386 14.119 23.9655 13.2591 23.9885 12.3225C24.0115 11.3858 24.023 10.4223 24.023 9.43186C24.023 8.44146 24.0115 7.47793 23.9885 6.54127C23.9655 5.60461 23.9386 4.74472 23.9079 3.96161C23.8772 3.19386 23.4165 2.80998 22.5259 2.80998C21.62 2.80998 21.1516 3.19386 21.1209 3.96161C21.0902 4.74472 21.0672 5.60461 21.0518 6.54127C21.0365 7.47793 21.0288 8.44146 21.0288 9.43186C21.0288 10.4223 21.0365 11.3858 21.0518 12.3225C21.0672 13.2591 21.0902 14.119 21.1209 14.9021ZM33.9731 18.6564C35.7083 18.6564 36.9597 18.2879 37.7274 17.5509C38.4952 16.8138 38.8944 15.6008 38.9251 13.9117C38.9559 12.8369 38.975 11.8196 38.9827 10.8599C38.9904 9.90019 38.9904 8.9405 38.9827 7.98081C38.975 7.02111 38.9559 6.01152 38.9251 4.95202C38.8944 3.26296 38.4952 2.05374 37.7274 1.32438C36.9597 0.59501 35.7083 0.230326 33.9731 0.230326H29.2975V18.6564H33.9731ZM32.7524 15.6161H33.9731C34.9405 15.6161 35.4395 15.1862 35.4702 14.3263C35.5624 11.0557 35.5624 7.79271 35.4702 4.53743C35.4395 3.6929 34.9405 3.27063 33.9731 3.27063H32.7524V15.6161ZM48.7831 18.6564V15.6161H44.2687V10.8023H48.5528V7.762H44.2687V3.27063H48.7831V0.230326H40.8138V18.6564H48.7831ZM53.62 12.4376V18.6564H50.1651V0.230326H54.6104C56.3301 0.230326 57.5701 0.579654 58.3301 1.27831C59.0902 1.97697 59.501 3.12476 59.5624 4.72169C59.5777 5.15163 59.5892 5.52783 59.5969 5.85029C59.6046 6.17274 59.6046 6.4952 59.5969 6.81766C59.5892 7.14012 59.5777 7.51631 59.5624 7.94626C59.5317 8.94434 59.3628 9.762 59.0557 10.3992C58.7486 11.0365 58.2802 11.524 57.6507 11.8618L59.8157 18.6564H56.1535L54.4031 12.4376H53.62ZM54.6104 9.39731H53.62V3.27063H54.6104C55.5624 3.27063 56.0614 3.6929 56.1075 4.53743C56.1843 5.73512 56.1843 6.93282 56.1075 8.13052C56.0614 8.97505 55.5624 9.39731 54.6104 9.39731ZM64.238 11.5854L64.5374 18.6564H61.1977V0.230326H66.1958L67.5777 6.10365L68.8445 15.6161H69.4434L68.7985 8.13052L68.5221 0.230326H71.8618V18.6564H66.6104L65.2284 12.6219L64.2841 3.2476H63.6392L64.238 11.5854ZM3.54702 39.7697L3.93858 35.9232H6.61036L7.00192 39.7697H10.5489L7.99232 21.3436H2.55662L0 39.7697H3.54702ZM4.26104 32.8829H6.28791L5.87332 28.8061L5.59693 24.3839H4.95202L4.67562 28.8061L4.26104 32.8829ZM15.3858 39.7697V33.5509H16.1689L17.9194 39.7697H21.5816L19.4165 32.975C20.0461 32.6372 20.5144 32.1497 20.8215 31.5125C21.1286 30.8752 21.2975 30.0576 21.3282 29.0595C21.3436 28.6296 21.3551 28.2534 21.3628 27.9309C21.3704 27.6084 21.3704 27.286 21.3628 26.9635C21.3551 26.6411 21.3436 26.2649 21.3282 25.8349C21.2668 24.238 20.856 23.0902 20.096 22.3916C19.3359 21.6929 18.096 21.3436 16.3762 21.3436H11.9309V39.7697H15.3858ZM15.3858 30.5106H16.3762C17.3282 30.5106 17.8273 30.0883 17.8733 29.2438C17.9501 28.0461 17.9501 26.8484 17.8733 25.6507C17.8273 24.8061 17.3282 24.3839 16.3762 24.3839H15.3858V30.5106ZM28.929 39.7697V24.3839H31.8772V21.3436H22.5029V24.3839H25.4741V39.7697H28.929ZM46.8484 38.929C46.096 39.643 44.8983 40 43.2553 40C42.1036 40 41.1785 39.8426 40.4798 39.5278C39.7812 39.2131 39.2706 38.7178 38.9482 38.0422C38.6257 37.3666 38.4415 36.476 38.3954 35.3704C38.38 34.7255 38.3647 33.9923 38.3493 33.1708C38.334 32.3493 38.3263 31.4971 38.3263 30.6142C38.3263 29.7313 38.334 28.8829 38.3493 28.0691C38.3647 27.2553 38.38 26.5413 38.3954 25.9271C38.4415 24.7601 38.6296 23.8234 38.9597 23.1171C39.2898 22.4107 39.8042 21.9002 40.5029 21.5854C41.2015 21.2706 42.119 21.1132 43.2553 21.1132C44.8676 21.1132 46.0422 21.4702 46.7793 22.1843C47.5163 22.8983 47.9386 24.0768 48.0461 25.7198C48.0768 26.0729 48.0921 26.4952 48.0921 26.9866C48.0921 27.4779 48.0768 27.9002 48.0461 28.2534H44.5912C44.6219 27.8234 44.6372 27.2937 44.6372 26.6641C44.6372 26.0345 44.6219 25.5048 44.5912 25.0749C44.5451 24.3071 44.0998 23.9232 43.2553 23.9232C42.3647 23.9232 41.8964 24.3071 41.8503 25.0749C41.7889 26.1497 41.7466 27.3321 41.7236 28.6219C41.7006 29.9117 41.7006 31.1977 41.7236 32.4798C41.7466 33.762 41.7889 34.9405 41.8503 36.0154C41.8964 36.7985 42.3647 37.19 43.2553 37.19C43.7006 37.19 44.0537 37.0902 44.3148 36.8906C44.5758 36.691 44.7217 36.3992 44.7524 36.0154C44.7678 35.8311 44.7793 35.5969 44.7869 35.3129C44.7946 35.0288 44.7946 34.7409 44.7869 34.4491C44.7793 34.1574 44.7678 33.9271 44.7524 33.7582H43.4856V30.7639H48.1152C48.1459 31.4702 48.1574 32.238 48.1497 33.0672C48.142 33.8964 48.1228 34.6641 48.0921 35.3704C48.0154 37.0288 47.6008 38.215 46.8484 38.929ZM52.6296 39.7697L53.0211 35.9232H55.6929L56.0845 39.7697H59.6315L57.0749 21.3436H51.6392L49.0825 39.7697H52.6296ZM53.3436 32.8829H55.3704L54.9559 28.8061L54.6795 24.3839H54.0345L53.7582 28.8061L53.3436 32.8829ZM69.0058 39.7697V36.7294H64.4683V21.3436H61.0134V39.7697H69.0058ZM78.38 36.7294V39.7697H70.3877V21.3436H73.8426V36.7294H78.38ZM87.7313 39.7697V36.7294H83.2169V31.9155H87.501V28.8752H83.2169V24.3839H87.7313V21.3436H79.762V39.7697H87.7313ZM92.5681 33.5509V39.7697H89.1132V21.3436H93.5585C95.2783 21.3436 96.5182 21.6929 97.2783 22.3916C98.0384 23.0902 98.4491 24.238 98.5106 25.8349C98.5259 26.2649 98.5374 26.6411 98.5451 26.9635C98.5528 27.286 98.5528 27.6084 98.5451 27.9309C98.5374 28.2534 98.5259 28.6296 98.5106 29.0595C98.4798 30.0576 98.3109 30.8752 98.0038 31.5125C97.6967 32.1497 97.2284 32.6372 96.5988 32.975L98.7639 39.7697H95.1017L93.3512 33.5509H92.5681ZM93.5585 30.5106H92.5681V24.3839H93.5585C94.5106 24.3839 95.0096 24.8061 95.0557 25.6507C95.1324 26.8484 95.1324 28.0461 95.0557 29.2438C95.0096 30.0883 94.5106 30.5106 93.5585 30.5106ZM106.595 35.3704V39.7697H103.14V35.3704L102.887 34.334L99.6852 21.3436H103.209L104.2 25.8119L104.545 31.2246H105.19L105.536 25.8119L106.526 21.3436H110.05L106.848 34.3109L106.595 35.3704Z" fill="#151515"/>
<path d="M26.1651 17.8157L25.8172 17.4566L25.8172 17.4566L26.1651 17.8157ZM27.3628 14.2572L26.8632 14.2368L26.8631 14.2387L27.3628 14.2572ZM27.3628 4.60653L26.8631 4.6252L26.8632 4.62651L27.3628 4.60653ZM26.1651 1.07102L25.8172 1.43014L25.8172 1.43014L26.1651 1.07102ZM18.8522 1.07102L19.1945 1.43544L19.1945 1.43544L18.8522 1.07102ZM17.666 4.60653L18.1659 4.61673L18.1659 4.61587L17.666 4.60653ZM17.62 9.43186L17.12 9.43186L17.12 9.43218L17.62 9.43186ZM17.6202 9.79715L17.1202 9.79747L17.1202 9.7978L17.6202 9.79715ZM17.666 14.2572L18.1659 14.2479L18.1659 14.247L17.666 14.2572ZM18.8522 17.8157L19.1945 17.4513L19.1945 17.4513L18.8522 17.8157ZM3.91555 12.9904H4.41555V12.9738L4.41445 12.9573L3.91555 12.9904ZM3.91555 18.6564V19.1564H4.41555V18.6564H3.91555ZM3.27063 3.27063V2.77063H2.73636L2.77173 3.30374L3.27063 3.27063ZM3.86948 3.27063L4.36702 3.22111L4.32218 2.77063H3.86948V3.27063ZM4.85989 13.2207L4.36234 13.2703L4.36616 13.3086L4.37579 13.3459L4.85989 13.2207ZM6.26488 18.6564L5.78078 18.7816L5.87768 19.1564H6.26488V18.6564ZM9.97313 18.6564V19.1564H10.3587L10.4567 18.7835L9.97313 18.6564ZM11.4012 13.2207L11.8847 13.3478L11.8949 13.309L11.8988 13.2691L11.4012 13.2207ZM12.3685 3.27063V2.77063H11.9148L11.8709 3.22225L12.3685 3.27063ZM12.9904 3.27063L13.4892 3.30491L13.5259 2.77063H12.9904V3.27063ZM12.3225 12.9904L11.8236 12.9561L11.8225 12.9732V12.9904H12.3225ZM12.3225 18.6564H11.8225V19.1564H12.3225V18.6564ZM15.7774 18.6564V19.1564H16.2774V18.6564H15.7774ZM15.7774 0.230326H16.2774V-0.269674H15.7774V0.230326ZM10.2495 0.230326V-0.269674H9.848L9.76131 0.122373L10.2495 0.230326ZM8.70633 7.20921L8.21813 7.10126L8.20813 7.14649L8.2066 7.19278L8.70633 7.20921ZM8.42994 15.6161V16.1161H8.91377L8.92967 15.6326L8.42994 15.6161ZM7.83109 15.6161L7.33141 15.6339L7.34858 16.1161H7.83109V15.6161ZM7.53167 7.20921L8.03135 7.19142L8.02976 7.14661L8.02021 7.1028L7.53167 7.20921ZM6.01152 0.230326L6.50006 0.123911L6.41433 -0.269674H6.01152V0.230326ZM0.460653 0.230326V-0.269674H-0.0393474V0.230326H0.460653ZM0.460653 18.6564H-0.0393474V19.1564H0.460653V18.6564ZM21.1209 14.9021L21.6205 14.8825L21.6205 14.8825L21.1209 14.9021ZM23.9079 14.9021L23.4083 14.8825L23.4083 14.8825L23.9079 14.9021ZM23.9885 12.3225L23.4886 12.3102L23.4886 12.3102L23.9885 12.3225ZM23.9885 6.54127L23.4886 6.55356L23.4886 6.55356L23.9885 6.54127ZM23.9079 3.96161L24.4075 3.94202L24.4075 3.94163L23.9079 3.96161ZM21.1209 3.96161L20.6213 3.94163L20.6213 3.94202L21.1209 3.96161ZM21.0518 6.54127L21.5518 6.54946L21.5518 6.54946L21.0518 6.54127ZM21.0518 12.3225L21.5518 12.3143L21.5518 12.3143L21.0518 12.3225ZM37.7274 17.5509L37.3812 17.1902L37.3812 17.1902L37.7274 17.5509ZM38.9251 13.9117L38.4253 13.8974L38.4252 13.9026L38.9251 13.9117ZM38.9827 10.8599L39.4827 10.8639L39.4827 10.8639L38.9827 10.8599ZM38.9827 7.98081L39.4827 7.97681L39.4827 7.97681L38.9827 7.98081ZM38.9251 4.95202L38.4252 4.96111L38.4254 4.9665L38.9251 4.95202ZM37.7274 1.32438L38.0718 0.961877L38.0718 0.961877L37.7274 1.32438ZM29.2975 0.230326V-0.269674H28.7975V0.230326H29.2975ZM29.2975 18.6564H28.7975V19.1564H29.2975V18.6564ZM32.7524 15.6161H32.2524V16.1161H32.7524V15.6161ZM35.4702 14.3263L35.9699 14.3441L35.9701 14.3404L35.4702 14.3263ZM35.4702 4.53743L35.9701 4.52328L35.9699 4.51926L35.4702 4.53743ZM32.7524 3.27063V2.77063H32.2524V3.27063H32.7524ZM48.7831 15.6161H49.2831V15.1161H48.7831V15.6161ZM48.7831 18.6564V19.1564H49.2831V18.6564H48.7831ZM44.2687 15.6161H43.7687V16.1161H44.2687V15.6161ZM44.2687 10.8023V10.3023H43.7687V10.8023H44.2687ZM48.5528 10.8023V11.3023H49.0528V10.8023H48.5528ZM48.5528 7.762H49.0528V7.262H48.5528V7.762ZM44.2687 7.762H43.7687V8.262H44.2687V7.762ZM44.2687 3.27063V2.77063H43.7687V3.27063H44.2687ZM48.7831 3.27063V3.77063H49.2831V3.27063H48.7831ZM48.7831 0.230326H49.2831V-0.269674H48.7831V0.230326ZM40.8138 0.230326V-0.269674H40.3138V0.230326H40.8138ZM40.8138 18.6564H40.3138V19.1564H40.8138V18.6564ZM53.62 18.6564V19.1564H54.12V18.6564H53.62ZM53.62 12.4376V11.9376H53.12V12.4376H53.62ZM50.1651 18.6564H49.6651V19.1564H50.1651V18.6564ZM50.1651 0.230326V-0.269674H49.6651V0.230326H50.1651ZM58.3301 1.27831L57.9918 1.64642L57.9918 1.64642L58.3301 1.27831ZM59.5624 4.72169L60.0621 4.70384L60.062 4.70247L59.5624 4.72169ZM59.5624 7.94626L59.0627 7.92841L59.0626 7.93088L59.5624 7.94626ZM59.0557 10.3992L59.5061 10.6163L59.5061 10.6163L59.0557 10.3992ZM57.6507 11.8618L57.4143 11.4212L57.0481 11.6177L57.1743 12.0136L57.6507 11.8618ZM59.8157 18.6564V19.1564H60.4998L60.2921 18.5046L59.8157 18.6564ZM56.1535 18.6564L55.6723 18.7919L55.7749 19.1564H56.1535V18.6564ZM54.4031 12.4376L54.8844 12.3021L54.7818 11.9376H54.4031V12.4376ZM53.62 9.39731H53.12V9.89731H53.62V9.39731ZM53.62 3.27063V2.77063H53.12V3.27063H53.62ZM56.1075 4.53743L55.6082 4.56466L55.6085 4.56941L56.1075 4.53743ZM56.1075 8.13052L55.6085 8.09853L55.6082 8.10329L56.1075 8.13052ZM64.5374 18.6564V19.1564H65.0591L65.037 18.6353L64.5374 18.6564ZM64.238 11.5854L64.7376 11.5643L64.7372 11.5569L64.7367 11.5496L64.238 11.5854ZM61.1977 18.6564H60.6977V19.1564H61.1977V18.6564ZM61.1977 0.230326V-0.269674H60.6977V0.230326H61.1977ZM66.1958 0.230326L66.6825 0.115807L66.5918 -0.269674H66.1958V0.230326ZM67.5777 6.10365L68.0734 6.03764L68.0701 6.01317L68.0644 5.98913L67.5777 6.10365ZM68.8445 15.6161L68.3489 15.6821L68.4067 16.1161H68.8445V15.6161ZM69.4434 15.6161V16.1161H69.9883L69.9415 15.5732L69.4434 15.6161ZM68.7985 8.13052L68.2988 8.148L68.2992 8.16074L68.3003 8.17344L68.7985 8.13052ZM68.5221 0.230326V-0.269674H68.0043L68.0224 0.247808L68.5221 0.230326ZM71.8618 0.230326H72.3618V-0.269674H71.8618V0.230326ZM71.8618 18.6564V19.1564H72.3618V18.6564H71.8618ZM66.6104 18.6564L66.123 18.768L66.2119 19.1564H66.6104V18.6564ZM65.2284 12.6219L64.7309 12.672L64.7341 12.7031L64.741 12.7335L65.2284 12.6219ZM64.2841 3.2476L64.7816 3.19749L64.7362 2.7476H64.2841V3.2476ZM63.6392 3.2476V2.7476H63.102L63.1404 3.28342L63.6392 3.2476ZM3.93858 35.9232V35.4232H3.48689L3.44115 35.8726L3.93858 35.9232ZM3.54702 39.7697V40.2697H3.99871L4.04445 39.8203L3.54702 39.7697ZM6.61036 35.9232L7.10779 35.8726L7.06205 35.4232H6.61036V35.9232ZM7.00192 39.7697L6.50449 39.8203L6.55023 40.2697H7.00192V39.7697ZM10.5489 39.7697V40.2697H11.1231L11.0442 39.701L10.5489 39.7697ZM7.99232 21.3436L8.48758 21.2749L8.42774 20.8436H7.99232V21.3436ZM2.55662 21.3436V20.8436H2.12121L2.06137 21.2749L2.55662 21.3436ZM0 39.7697L-0.495256 39.701L-0.574165 40.2697H0V39.7697ZM6.28791 32.8829V33.3829H6.84133L6.78534 32.8323L6.28791 32.8829ZM4.26104 32.8829L3.7636 32.8323L3.70761 33.3829H4.26104V32.8829ZM5.87332 28.8061L5.37429 28.8373L5.3749 28.847L5.37589 28.8567L5.87332 28.8061ZM5.59693 24.3839L6.09596 24.3527L6.06665 23.8839H5.59693V24.3839ZM4.95202 24.3839V23.8839H4.48229L4.45299 24.3527L4.95202 24.3839ZM4.67562 28.8061L5.17306 28.8567L5.17404 28.847L5.17465 28.8373L4.67562 28.8061ZM15.3858 33.5509V33.0509H14.8858V33.5509H15.3858ZM15.3858 39.7697V40.2697H15.8858V39.7697H15.3858ZM16.1689 33.5509L16.6502 33.4154L16.5476 33.0509H16.1689V33.5509ZM17.9194 39.7697L17.4381 39.9052L17.5407 40.2697H17.9194V39.7697ZM21.5816 39.7697V40.2697H22.2657L22.058 39.6179L21.5816 39.7697ZM19.4165 32.975L19.1801 32.5345L18.814 32.7309L18.9401 33.1268L19.4165 32.975ZM20.8215 31.5125L21.2719 31.7295L21.2719 31.7295L20.8215 31.5125ZM21.3282 29.0595L20.8285 29.0417L20.8285 29.0441L21.3282 29.0595ZM21.3628 26.9635L21.8626 26.9516L21.8626 26.9516L21.3628 26.9635ZM21.3282 25.8349L21.8279 25.8171L21.8278 25.8157L21.3282 25.8349ZM20.096 22.3916L20.4343 22.0234L20.4343 22.0234L20.096 22.3916ZM11.9309 21.3436V20.8436H11.4309V21.3436H11.9309ZM11.9309 39.7697H11.4309V40.2697H11.9309V39.7697ZM15.3858 30.5106H14.8858V31.0106H15.3858V30.5106ZM17.8733 29.2438L17.3743 29.2118L17.3741 29.2165L17.8733 29.2438ZM17.8733 25.6507L17.374 25.6779L17.3743 25.6827L17.8733 25.6507ZM15.3858 24.3839V23.8839H14.8858V24.3839H15.3858ZM28.929 24.3839V23.8839H28.429V24.3839H28.929ZM28.929 39.7697V40.2697H29.429V39.7697H28.929ZM31.8772 24.3839V24.8839H32.3772V24.3839H31.8772ZM31.8772 21.3436H32.3772V20.8436H31.8772V21.3436ZM22.5029 21.3436V20.8436H22.0029V21.3436H22.5029ZM22.5029 24.3839H22.0029V24.8839H22.5029V24.3839ZM25.4741 24.3839H25.9741V23.8839H25.4741V24.3839ZM25.4741 39.7697H24.9741V40.2697H25.4741V39.7697ZM40.4798 39.5278L40.2745 39.9837L40.2745 39.9837L40.4798 39.5278ZM38.3954 35.3704L37.8955 35.3823L37.8958 35.3913L38.3954 35.3704ZM38.3493 33.1708L37.8494 33.1802L37.8494 33.1802L38.3493 33.1708ZM38.3954 25.9271L37.8957 25.9073L37.8955 25.9146L38.3954 25.9271ZM38.9597 23.1171L38.5067 22.9054L38.5067 22.9054L38.9597 23.1171ZM40.5029 21.5854L40.2975 21.1295L40.2975 21.1295L40.5029 21.5854ZM46.7793 22.1843L47.1272 21.8251L47.1272 21.8251L46.7793 22.1843ZM48.0461 25.7198L47.547 25.7524L47.5479 25.7631L48.0461 25.7198ZM48.0461 28.2534V28.7534H48.5045L48.5442 28.2967L48.0461 28.2534ZM44.5912 28.2534L44.0924 28.2177L44.0542 28.7534H44.5912V28.2534ZM44.5912 25.0749L44.092 25.1048L44.0924 25.1105L44.5912 25.0749ZM41.8503 25.0749L41.3512 25.0449L41.3511 25.0463L41.8503 25.0749ZM41.7236 28.6219L41.2237 28.613L41.2237 28.613L41.7236 28.6219ZM41.8503 36.0154L41.3511 36.0439L41.3511 36.0447L41.8503 36.0154ZM44.7524 36.0154L44.2541 35.9738L44.254 35.9755L44.7524 36.0154ZM44.7869 35.3129L44.2871 35.2993L44.2871 35.2994L44.7869 35.3129ZM44.7869 34.4491L44.2871 34.4623L44.2871 34.4623L44.7869 34.4491ZM44.7524 33.7582L45.2503 33.7129L45.209 33.2582H44.7524V33.7582ZM43.4856 33.7582H42.9856V34.2582H43.4856V33.7582ZM43.4856 30.7639V30.2639H42.9856V30.7639H43.4856ZM48.1152 30.7639L48.6147 30.7422L48.5939 30.2639H48.1152V30.7639ZM48.1497 33.0672L48.6497 33.0718L48.6497 33.0718L48.1497 33.0672ZM48.0921 35.3704L48.5916 35.3936L48.5917 35.3922L48.0921 35.3704ZM53.0211 35.9232V35.4232H52.5694L52.5237 35.8726L53.0211 35.9232ZM52.6296 39.7697V40.2697H53.0812L53.127 39.8203L52.6296 39.7697ZM55.6929 35.9232L56.1903 35.8726L56.1446 35.4232H55.6929V35.9232ZM56.0845 39.7697L55.587 39.8203L55.6328 40.2697H56.0845V39.7697ZM59.6315 39.7697V40.2697H60.2056L60.1267 39.701L59.6315 39.7697ZM57.0749 21.3436L57.5701 21.2749L57.5103 20.8436H57.0749V21.3436ZM51.6392 21.3436V20.8436H51.2037L51.1439 21.2749L51.6392 21.3436ZM49.0825 39.7697L48.5873 39.701L48.5084 40.2697H49.0825V39.7697ZM55.3704 32.8829V33.3829H55.9239L55.8679 32.8323L55.3704 32.8829ZM53.3436 32.8829L52.8461 32.8323L52.7901 33.3829H53.3436V32.8829ZM54.9559 28.8061L54.4568 28.8373L54.4574 28.847L54.4584 28.8567L54.9559 28.8061ZM54.6795 24.3839L55.1785 24.3527L55.1492 23.8839H54.6795V24.3839ZM54.0345 24.3839V23.8839H53.5648L53.5355 24.3527L54.0345 24.3839ZM53.7582 28.8061L54.2556 28.8567L54.2566 28.847L54.2572 28.8373L53.7582 28.8061ZM69.0058 36.7294H69.5058V36.2294H69.0058V36.7294ZM69.0058 39.7697V40.2697H69.5058V39.7697H69.0058ZM64.4683 36.7294H63.9683V37.2294H64.4683V36.7294ZM64.4683 21.3436H64.9683V20.8436H64.4683V21.3436ZM61.0134 21.3436V20.8436H60.5134V21.3436H61.0134ZM61.0134 39.7697H60.5134V40.2697H61.0134V39.7697ZM78.38 39.7697V40.2697H78.88V39.7697H78.38ZM78.38 36.7294H78.88V36.2294H78.38V36.7294ZM70.3877 39.7697H69.8877V40.2697H70.3877V39.7697ZM70.3877 21.3436V20.8436H69.8877V21.3436H70.3877ZM73.8426 21.3436H74.3426V20.8436H73.8426V21.3436ZM73.8426 36.7294H73.3426V37.2294H73.8426V36.7294ZM87.7313 36.7294H88.2313V36.2294H87.7313V36.7294ZM87.7313 39.7697V40.2697H88.2313V39.7697H87.7313ZM83.2169 36.7294H82.7169V37.2294H83.2169V36.7294ZM83.2169 31.9155V31.4155H82.7169V31.9155H83.2169ZM87.501 31.9155V32.4155H88.001V31.9155H87.501ZM87.501 28.8752H88.001V28.3752H87.501V28.8752ZM83.2169 28.8752H82.7169V29.3752H83.2169V28.8752ZM83.2169 24.3839V23.8839H82.7169V24.3839H83.2169ZM87.7313 24.3839V24.8839H88.2313V24.3839H87.7313ZM87.7313 21.3436H88.2313V20.8436H87.7313V21.3436ZM79.762 21.3436V20.8436H79.262V21.3436H79.762ZM79.762 39.7697H79.262V40.2697H79.762V39.7697ZM92.5681 39.7697V40.2697H93.0681V39.7697H92.5681ZM92.5681 33.5509V33.0509H92.0681V33.5509H92.5681ZM89.1132 39.7697H88.6132V40.2697H89.1132V39.7697ZM89.1132 21.3436V20.8436H88.6132V21.3436H89.1132ZM97.2783 22.3916L97.6167 22.0234L97.6167 22.0234L97.2783 22.3916ZM98.5106 25.8349L99.0102 25.8171L99.0102 25.8157L98.5106 25.8349ZM98.5451 26.9635L99.045 26.9516L99.045 26.9516L98.5451 26.9635ZM98.5106 29.0595L98.0109 29.0417L98.0108 29.0441L98.5106 29.0595ZM98.0038 31.5125L97.5534 31.2954L97.5534 31.2954L98.0038 31.5125ZM96.5988 32.975L96.3624 32.5345L95.9963 32.7309L96.1224 33.1268L96.5988 32.975ZM98.7639 39.7697V40.2697H99.448L99.2403 39.6179L98.7639 39.7697ZM95.1017 39.7697L94.6204 39.9052L94.723 40.2697H95.1017V39.7697ZM93.3512 33.5509L93.8325 33.4154L93.7299 33.0509H93.3512V33.5509ZM92.5681 30.5106H92.0681V31.0106H92.5681V30.5106ZM92.5681 24.3839V23.8839H92.0681V24.3839H92.5681ZM95.0557 25.6507L94.5564 25.6779L94.5567 25.6827L95.0557 25.6507ZM95.0557 29.2438L94.5567 29.2118L94.5564 29.2165L95.0557 29.2438ZM106.595 39.7697V40.2697H107.095V39.7697H106.595ZM106.595 35.3704L106.109 35.2542L106.095 35.3115V35.3704H106.595ZM103.14 39.7697H102.64V40.2697H103.14V39.7697ZM103.14 35.3704H103.64V35.3102L103.626 35.2517L103.14 35.3704ZM102.887 34.334L103.372 34.2152L103.372 34.2143L102.887 34.334ZM99.6852 21.3436V20.8436H99.047L99.1997 21.4632L99.6852 21.3436ZM103.209 21.3436L103.697 21.2354L103.611 20.8436H103.209V21.3436ZM104.2 25.8119L104.699 25.7801L104.696 25.7415L104.688 25.7037L104.2 25.8119ZM104.545 31.2246L104.046 31.2564L104.076 31.7246H104.545V31.2246ZM105.19 31.2246V31.7246H105.659L105.689 31.2564L105.19 31.2246ZM105.536 25.8119L105.047 25.7037L105.039 25.7415L105.037 25.7801L105.536 25.8119ZM106.526 21.3436V20.8436H106.125L106.038 21.2354L106.526 21.3436ZM110.05 21.3436L110.535 21.4634L110.688 20.8436H110.05V21.3436ZM106.848 34.3109L106.363 34.1911L106.362 34.1947L106.848 34.3109ZM26.1651 17.8157L25.8172 17.4566C25.218 18.037 24.1645 18.3868 22.5259 18.3868V18.8868V19.3868C24.2655 19.3868 25.638 19.0225 26.513 18.1749L26.1651 17.8157ZM27.3628 14.2572L26.8631 14.2387C26.8037 15.8439 26.4186 16.8739 25.8172 17.4566L26.1651 17.8157L26.513 18.1749C27.3856 17.3295 27.799 15.9872 27.8624 14.2757L27.3628 14.2572ZM27.4549 9.45489H26.9549C26.9549 11.1457 26.9243 12.7396 26.8632 14.2368L27.3628 14.2572L27.8623 14.2776C27.9241 12.7652 27.9549 11.1576 27.9549 9.45489H27.4549ZM27.3628 4.60653L26.8632 4.62651C26.9243 6.15472 26.9549 7.76414 26.9549 9.45489H27.4549H27.9549C27.9549 7.75217 27.9241 6.12935 27.8624 4.58654L27.3628 4.60653ZM26.1651 1.07102L25.8172 1.43014C26.4194 2.01354 26.8037 3.03689 26.8631 4.6252L27.3628 4.60653L27.8624 4.58785C27.799 2.89018 27.3848 1.55651 26.513 0.711897L26.1651 1.07102ZM22.5259 0V0.5C24.1645 0.5 25.218 0.849722 25.8172 1.43014L26.1651 1.07102L26.513 0.711897C25.638 -0.13571 24.2655 -0.5 22.5259 -0.5V0ZM18.8522 1.07102L19.1945 1.43544C19.8189 0.848909 20.8893 0.5 22.5259 0.5V0V-0.5C20.7844 -0.5 19.4056 -0.134898 18.5099 0.706593L18.8522 1.07102ZM17.666 4.60653L18.1659 4.61587C18.1955 3.0322 18.5767 2.01588 19.1945 1.43544L18.8522 1.07102L18.5099 0.706593C17.6076 1.55418 17.1979 2.89486 17.1661 4.59718L17.666 4.60653ZM17.62 9.43186H18.12C18.12 7.72272 18.1353 6.1177 18.1659 4.61673L17.666 4.60653L17.1661 4.59632C17.1353 6.10495 17.12 7.71682 17.12 9.43186H17.62ZM17.6202 9.79715L18.1202 9.79683L18.12 9.43154L17.62 9.43186L17.12 9.43218L17.1202 9.79747L17.6202 9.79715ZM17.666 14.2572L18.1659 14.247C18.1375 12.8532 18.1222 11.3698 18.1202 9.79651L17.6202 9.79715L17.1202 9.7978C17.1222 11.3766 17.1375 12.8665 17.1661 14.2674L17.666 14.2572ZM18.8522 17.8157L19.1945 17.4513C18.5774 16.8716 18.1956 15.8486 18.1659 14.2479L17.666 14.2572L17.1661 14.2665C17.1979 15.9825 17.6068 17.3318 18.5099 18.1802L18.8522 17.8157ZM22.5259 18.8868V18.3868C20.8893 18.3868 19.8189 18.0378 19.1945 17.4513L18.8522 17.8157L18.5099 18.1802C19.4056 19.0217 20.7844 19.3868 22.5259 19.3868V18.8868ZM3.91555 12.9904H3.41555V18.6564H3.91555H4.41555V12.9904H3.91555ZM3.27063 3.27063L2.77173 3.30374L3.41664 13.0235L3.91555 12.9904L4.41445 12.9573L3.76954 3.23753L3.27063 3.27063ZM3.86948 3.27063V2.77063H3.27063V3.27063V3.77063H3.86948V3.27063ZM4.85989 13.2207L5.35743 13.1712L4.36702 3.22111L3.86948 3.27063L3.37194 3.32016L4.36234 13.2703L4.85989 13.2207ZM6.26488 18.6564L6.74897 18.5313L5.34398 13.0956L4.85989 13.2207L4.37579 13.3459L5.78078 18.7816L6.26488 18.6564ZM9.97313 18.6564V18.1564H6.26488V18.6564V19.1564H9.97313V18.6564ZM11.4012 13.2207L10.9176 13.0937L9.48954 18.5294L9.97313 18.6564L10.4567 18.7835L11.8847 13.3478L11.4012 13.2207ZM12.3685 3.27063L11.8709 3.22225L10.9035 13.1723L11.4012 13.2207L11.8988 13.2691L12.8662 3.31902L12.3685 3.27063ZM12.9904 3.27063V2.77063H12.3685V3.27063V3.77063H12.9904V3.27063ZM12.3225 12.9904L12.8213 13.0247L13.4892 3.30491L12.9904 3.27063L12.4916 3.23635L11.8236 12.9561L12.3225 12.9904ZM12.3225 18.6564H12.8225V12.9904H12.3225H11.8225V18.6564H12.3225ZM15.7774 18.6564V18.1564H12.3225V18.6564V19.1564H15.7774V18.6564ZM15.7774 0.230326H15.2774V18.6564H15.7774H16.2774V0.230326H15.7774ZM10.2495 0.230326V0.730326H15.7774V0.230326V-0.269674H10.2495V0.230326ZM8.70633 7.20921L9.19454 7.31717L10.7377 0.33828L10.2495 0.230326L9.76131 0.122373L8.21813 7.10126L8.70633 7.20921ZM8.42994 15.6161L8.92967 15.6326L9.20606 7.22564L8.70633 7.20921L8.2066 7.19278L7.93021 15.5997L8.42994 15.6161ZM7.83109 15.6161V16.1161H8.42994V15.6161V15.1161H7.83109V15.6161ZM7.53167 7.20921L7.03199 7.22701L7.33141 15.6339L7.83109 15.6161L8.33078 15.5983L8.03135 7.19142L7.53167 7.20921ZM6.01152 0.230326L5.52297 0.336742L7.04313 7.31563L7.53167 7.20921L8.02021 7.1028L6.50006 0.123911L6.01152 0.230326ZM0.460653 0.230326V0.730326H6.01152V0.230326V-0.269674H0.460653V0.230326ZM0.460653 18.6564H0.960653V0.230326H0.460653H-0.0393474V18.6564H0.460653ZM3.91555 18.6564V18.1564H0.460653V18.6564V19.1564H3.91555V18.6564ZM22.5259 16.0768V15.5768C22.1353 15.5768 21.9255 15.4911 21.8159 15.3995C21.719 15.3185 21.632 15.1755 21.6205 14.8825L21.1209 14.9021L20.6213 14.9217C20.6405 15.4118 20.8031 15.8562 21.1745 16.1667C21.5333 16.4667 22.0106 16.5768 22.5259 16.5768V16.0768ZM23.9079 14.9021L23.4083 14.8825C23.3967 15.1781 23.31 15.3219 23.2155 15.4021C23.1099 15.4919 22.9071 15.5768 22.5259 15.5768V16.0768V16.5768C23.0353 16.5768 23.5081 16.4659 23.8632 16.1641C24.2294 15.8528 24.3884 15.4092 24.4075 14.9217L23.9079 14.9021ZM23.9885 12.3225L23.4886 12.3102C23.4657 13.2448 23.4389 14.1023 23.4083 14.8825L23.9079 14.9021L24.4075 14.9217C24.4383 14.1357 24.4653 13.2734 24.4883 12.3347L23.9885 12.3225ZM24.023 9.43186H23.523C23.523 10.4184 23.5116 11.3778 23.4886 12.3102L23.9885 12.3225L24.4883 12.3347C24.5115 11.3938 24.523 10.4261 24.523 9.43186H24.023ZM23.9885 6.54127L23.4886 6.55356C23.5116 7.4859 23.523 8.44533 23.523 9.43186H24.023H24.523C24.523 8.43759 24.5115 7.46996 24.4883 6.52898L23.9885 6.54127ZM23.9079 3.96161L23.4083 3.98121C23.4389 4.76147 23.4657 5.61888 23.4886 6.55356L23.9885 6.54127L24.4883 6.52898C24.4653 5.59033 24.4383 4.72798 24.4075 3.94202L23.9079 3.96161ZM22.5259 2.80998V3.30998C22.9091 3.30998 23.1134 3.39383 23.2193 3.482C23.3122 3.55943 23.3969 3.69668 23.4083 3.9816L23.9079 3.96161L24.4075 3.94163C24.3882 3.45879 24.2272 3.02022 23.8594 2.71378C23.5046 2.41807 23.0333 2.30998 22.5259 2.30998V2.80998ZM21.1209 3.96161L21.6205 3.9816C21.6318 3.69933 21.7167 3.56282 21.8122 3.48458C21.922 3.39456 22.1334 3.30998 22.5259 3.30998V2.80998V2.30998C22.0125 2.30998 21.5367 2.41734 21.1782 2.71119C20.8054 3.01684 20.6407 3.45614 20.6213 3.94163L21.1209 3.96161ZM21.0518 6.54127L21.5518 6.54946C21.5671 5.6159 21.59 4.75987 21.6205 3.98121L21.1209 3.96161L20.6213 3.94202C20.5904 4.72957 20.5673 5.59332 20.5519 6.53307L21.0518 6.54127ZM21.0288 9.43186H21.5288C21.5288 8.44404 21.5364 7.48324 21.5518 6.54946L21.0518 6.54127L20.5519 6.53307C20.5365 7.47261 20.5288 8.43888 20.5288 9.43186H21.0288ZM21.0518 12.3225L21.5518 12.3143C21.5364 11.3805 21.5288 10.4197 21.5288 9.43186H21.0288H20.5288C20.5288 10.4248 20.5365 11.3911 20.5519 12.3307L21.0518 12.3225ZM21.1209 14.9021L21.6205 14.8825C21.59 14.1039 21.5671 13.2478 21.5518 12.3143L21.0518 12.3225L20.5519 12.3307C20.5673 13.2704 20.5904 14.1342 20.6213 14.9217L21.1209 14.9021ZM37.7274 17.5509L37.3812 17.1902C36.7503 17.7958 35.6564 18.1564 33.9731 18.1564V18.6564V19.1564C35.7601 19.1564 37.169 18.78 38.0737 17.9116L37.7274 17.5509ZM38.9251 13.9117L38.4252 13.9026C38.3956 15.5342 38.0096 16.5869 37.3812 17.1902L37.7274 17.5509L38.0737 17.9116C38.9808 17.0408 39.3933 15.6674 39.4251 13.9208L38.9251 13.9117ZM38.9827 10.8599L38.4827 10.8559C38.4751 11.8118 38.456 12.8256 38.4253 13.8974L38.9251 13.9117L39.4249 13.926C39.4557 12.8481 39.475 11.8274 39.4827 10.8639L38.9827 10.8599ZM38.9827 7.98081L38.4827 7.9848C38.4904 8.94183 38.4904 9.89886 38.4827 10.8559L38.9827 10.8599L39.4827 10.8639C39.4904 9.90153 39.4904 8.93917 39.4827 7.97681L38.9827 7.98081ZM38.9251 4.95202L38.4254 4.9665C38.456 6.02286 38.4751 7.02895 38.4827 7.98481L38.9827 7.98081L39.4827 7.97681C39.475 7.01328 39.4557 6.00017 39.4249 4.93753L38.9251 4.95202ZM37.7274 1.32438L37.3831 1.68688C38.0094 2.28189 38.3955 3.32896 38.4252 4.96111L38.9251 4.95202L39.4251 4.94293C39.3933 3.19695 38.981 1.8256 38.0718 0.961877L37.7274 1.32438ZM33.9731 0.230326V0.730326C35.6575 0.730326 36.7523 1.0876 37.3831 1.68688L37.7274 1.32438L38.0718 0.961877C37.1671 0.102422 35.7591 -0.269674 33.9731 -0.269674V0.230326ZM29.2975 0.230326V0.730326H33.9731V0.230326V-0.269674H29.2975V0.230326ZM29.2975 18.6564H29.7975V0.230326H29.2975H28.7975V18.6564H29.2975ZM33.9731 18.6564V18.1564H29.2975V18.6564V19.1564H33.9731V18.6564ZM33.9731 15.6161V15.1161H32.7524V15.6161V16.1161H33.9731V15.6161ZM35.4702 14.3263L34.9706 14.3085C34.9586 14.6441 34.8608 14.8165 34.7466 14.9149C34.6221 15.0221 34.3918 15.1161 33.9731 15.1161V15.6161V16.1161C34.5219 16.1161 35.0247 15.9952 35.3993 15.6725C35.7842 15.3409 35.9512 14.8684 35.9699 14.3441L35.4702 14.3263ZM35.4702 4.53743L34.9704 4.55157C35.0623 7.7974 35.0623 11.0509 34.9704 14.3122L35.4702 14.3263L35.9701 14.3404C36.0624 11.0604 36.0624 7.78801 35.97 4.52328L35.4702 4.53743ZM33.9731 3.27063V3.77063C34.3936 3.77063 34.6253 3.86357 34.75 3.96903C34.8627 4.06442 34.9588 4.23033 34.9706 4.5556L35.4702 4.53743L35.9699 4.51926C35.951 4 35.7822 3.53251 35.3959 3.20564C35.0215 2.88883 34.52 2.77063 33.9731 2.77063V3.27063ZM32.7524 3.27063V3.77063H33.9731V3.27063V2.77063H32.7524V3.27063ZM32.7524 15.6161H33.2524V3.27063H32.7524H32.2524V15.6161H32.7524ZM48.7831 15.6161H48.2831V18.6564H48.7831H49.2831V15.6161H48.7831ZM44.2687 15.6161V16.1161H48.7831V15.6161V15.1161H44.2687V15.6161ZM44.2687 10.8023H43.7687V15.6161H44.2687H44.7687V10.8023H44.2687ZM48.5528 10.8023V10.3023H44.2687V10.8023V11.3023H48.5528V10.8023ZM48.5528 7.762H48.0528V10.8023H48.5528H49.0528V7.762H48.5528ZM44.2687 7.762V8.262H48.5528V7.762V7.262H44.2687V7.762ZM44.2687 3.27063H43.7687V7.762H44.2687H44.7687V3.27063H44.2687ZM48.7831 3.27063V2.77063H44.2687V3.27063V3.77063H48.7831V3.27063ZM48.7831 0.230326H48.2831V3.27063H48.7831H49.2831V0.230326H48.7831ZM40.8138 0.230326V0.730326H48.7831V0.230326V-0.269674H40.8138V0.230326ZM40.8138 18.6564H41.3138V0.230326H40.8138H40.3138V18.6564H40.8138ZM48.7831 18.6564V18.1564H40.8138V18.6564V19.1564H48.7831V18.6564ZM53.62 18.6564H54.12V12.4376H53.62H53.12V18.6564H53.62ZM50.1651 18.6564V19.1564H53.62V18.6564V18.1564H50.1651V18.6564ZM50.1651 0.230326H49.6651V18.6564H50.1651H50.6651V0.230326H50.1651ZM54.6104 0.230326V-0.269674H50.1651V0.230326V0.730326H54.6104V0.230326ZM58.3301 1.27831L58.6685 0.910198C57.7715 0.0856528 56.3775 -0.269674 54.6104 -0.269674V0.230326V0.730326C56.2828 0.730326 57.3686 1.07366 57.9918 1.64642L58.3301 1.27831ZM59.5624 4.72169L60.062 4.70247C59.9982 3.04366 59.569 1.73793 58.6685 0.910197L58.3301 1.27831L57.9918 1.64642C58.6114 2.21601 59.0037 3.20586 59.0627 4.74091L59.5624 4.72169ZM59.5969 5.85029L60.0968 5.83838C60.089 5.51342 60.0775 5.13516 60.0621 4.70384L59.5624 4.72169L59.0627 4.73953C59.078 5.1681 59.0895 5.54224 59.0971 5.86219L59.5969 5.85029ZM59.5969 6.81766L60.0968 6.82956C60.1047 6.49917 60.1047 6.16878 60.0968 5.83838L59.5969 5.85029L59.0971 5.86219C59.1046 6.17671 59.1046 6.49123 59.0971 6.80575L59.5969 6.81766ZM59.5624 7.94626L60.0621 7.9641C60.0775 7.53279 60.089 7.15453 60.0968 6.82956L59.5969 6.81766L59.0971 6.80575C59.0895 7.1257 59.078 7.49984 59.0627 7.92841L59.5624 7.94626ZM59.0557 10.3992L59.5061 10.6163C59.8534 9.8957 60.0301 9.00289 60.0621 7.96163L59.5624 7.94626L59.0626 7.93088C59.0332 8.88579 58.8722 9.6283 58.6052 10.1822L59.0557 10.3992ZM57.6507 11.8618L57.8871 12.3024C58.6088 11.9151 59.1526 11.3498 59.5061 10.6163L59.0557 10.3992L58.6052 10.1822C58.3445 10.7231 57.9516 11.1329 57.4143 11.4212L57.6507 11.8618ZM59.8157 18.6564L60.2921 18.5046L58.1271 11.71L57.6507 11.8618L57.1743 12.0136L59.3393 18.8082L59.8157 18.6564ZM56.1535 18.6564V19.1564H59.8157V18.6564V18.1564H56.1535V18.6564ZM54.4031 12.4376L53.9218 12.5731L55.6723 18.7919L56.1535 18.6564L56.6348 18.521L54.8844 12.3021L54.4031 12.4376ZM53.62 12.4376V12.9376H54.4031V12.4376V11.9376H53.62V12.4376ZM53.62 9.39731V9.89731H54.6104V9.39731V8.89731H53.62V9.39731ZM53.62 3.27063H53.12V9.39731H53.62H54.12V3.27063H53.62ZM54.6104 3.27063V2.77063H53.62V3.27063V3.77063H54.6104V3.27063ZM56.1075 4.53743L56.6067 4.5102C56.5785 3.99308 56.4048 3.52984 56.0216 3.20564C55.6484 2.88987 55.152 2.77063 54.6104 2.77063V3.27063V3.77063C55.0208 3.77063 55.2498 3.86253 55.3757 3.96903C55.4916 4.06709 55.5904 4.23725 55.6082 4.56466L56.1075 4.53743ZM56.1075 8.13052L56.6065 8.1625C56.6846 6.94351 56.6846 5.72444 56.6065 4.50544L56.1075 4.53743L55.6085 4.56941C55.6839 5.74581 55.6839 6.92214 55.6085 8.09853L56.1075 8.13052ZM54.6104 9.39731V9.89731C55.152 9.89731 55.6484 9.77808 56.0216 9.46231C56.4048 9.13811 56.5785 8.67487 56.6067 8.15775L56.1075 8.13052L55.6082 8.10329C55.5904 8.4307 55.4916 8.60086 55.3757 8.69892C55.2498 8.80542 55.0208 8.89731 54.6104 8.89731V9.39731ZM64.5374 18.6564L65.037 18.6353L64.7376 11.5643L64.238 11.5854L63.7385 11.6066L64.0379 18.6776L64.5374 18.6564ZM61.1977 18.6564V19.1564H64.5374V18.6564V18.1564H61.1977V18.6564ZM61.1977 0.230326H60.6977V18.6564H61.1977H61.6977V0.230326H61.1977ZM66.1958 0.230326V-0.269674H61.1977V0.230326V0.730326H66.1958V0.230326ZM67.5777 6.10365L68.0644 5.98913L66.6825 0.115807L66.1958 0.230326L65.7091 0.344846L67.091 6.21817L67.5777 6.10365ZM68.8445 15.6161L69.3402 15.5501L68.0734 6.03764L67.5777 6.10365L67.0821 6.16965L68.3489 15.6821L68.8445 15.6161ZM69.4434 15.6161V15.1161H68.8445V15.6161V16.1161H69.4434V15.6161ZM68.7985 8.13052L68.3003 8.17344L68.9452 15.659L69.4434 15.6161L69.9415 15.5732L69.2966 8.0876L68.7985 8.13052ZM68.5221 0.230326L68.0224 0.247808L68.2988 8.148L68.7985 8.13052L69.2982 8.11304L69.0218 0.212844L68.5221 0.230326ZM71.8618 0.230326V-0.269674H68.5221V0.230326V0.730326H71.8618V0.230326ZM71.8618 18.6564H72.3618V0.230326H71.8618H71.3618V18.6564H71.8618ZM66.6104 18.6564V19.1564H71.8618V18.6564V18.1564H66.6104V18.6564ZM65.2284 12.6219L64.741 12.7335L66.123 18.768L66.6104 18.6564L67.0977 18.5448L65.7158 12.5103L65.2284 12.6219ZM64.2841 3.2476L63.7866 3.29772L64.7309 12.672L65.2284 12.6219L65.7259 12.5718L64.7816 3.19749L64.2841 3.2476ZM63.6392 3.2476V3.7476H64.2841V3.2476V2.7476H63.6392V3.2476ZM64.238 11.5854L64.7367 11.5496L64.1379 3.21178L63.6392 3.2476L63.1404 3.28342L63.7393 11.6212L64.238 11.5854ZM3.93858 35.9232L3.44115 35.8726L3.0496 39.719L3.54702 39.7697L4.04445 39.8203L4.43601 35.9739L3.93858 35.9232ZM6.61036 35.9232V35.4232H3.93858V35.9232V36.4232H6.61036V35.9232ZM7.00192 39.7697L7.49935 39.719L7.10779 35.8726L6.61036 35.9232L6.11294 35.9739L6.50449 39.8203L7.00192 39.7697ZM10.5489 39.7697V39.2697H7.00192V39.7697V40.2697H10.5489V39.7697ZM7.99232 21.3436L7.49707 21.4123L10.0537 39.8384L10.5489 39.7697L11.0442 39.701L8.48758 21.2749L7.99232 21.3436ZM2.55662 21.3436V21.8436H7.99232V21.3436V20.8436H2.55662V21.3436ZM0 39.7697L0.495256 39.8384L3.05188 21.4123L2.55662 21.3436L2.06137 21.2749L-0.495256 39.701L0 39.7697ZM3.54702 39.7697V39.2697H0V39.7697V40.2697H3.54702V39.7697ZM6.28791 32.8829V32.3829H4.26104V32.8829V33.3829H6.28791V32.8829ZM5.87332 28.8061L5.37589 28.8567L5.79047 32.9335L6.28791 32.8829L6.78534 32.8323L6.37076 28.7556L5.87332 28.8061ZM5.59693 24.3839L5.0979 24.4151L5.37429 28.8373L5.87332 28.8061L6.37235 28.775L6.09596 24.3527L5.59693 24.3839ZM4.95202 24.3839V24.8839H5.59693V24.3839V23.8839H4.95202V24.3839ZM4.67562 28.8061L5.17465 28.8373L5.45104 24.4151L4.95202 24.3839L4.45299 24.3527L4.1766 28.775L4.67562 28.8061ZM4.26104 32.8829L4.75847 32.9335L5.17306 28.8567L4.67562 28.8061L4.17819 28.7556L3.7636 32.8323L4.26104 32.8829ZM15.3858 33.5509H14.8858V39.7697H15.3858H15.8858V33.5509H15.3858ZM16.1689 33.5509V33.0509H15.3858V33.5509V34.0509H16.1689V33.5509ZM17.9194 39.7697L18.4007 39.6342L16.6502 33.4154L16.1689 33.5509L15.6876 33.6863L17.4381 39.9052L17.9194 39.7697ZM21.5816 39.7697V39.2697H17.9194V39.7697V40.2697H21.5816V39.7697ZM19.4165 32.975L18.9401 33.1268L21.1052 39.9215L21.5816 39.7697L22.058 39.6179L19.8929 32.8232L19.4165 32.975ZM20.8215 31.5125L20.3711 31.2954C20.1104 31.8364 19.7175 32.2461 19.1801 32.5345L19.4165 32.975L19.6529 33.4156C20.3746 33.0284 20.9184 32.4631 21.2719 31.7295L20.8215 31.5125ZM21.3282 29.0595L20.8285 29.0441C20.7991 29.999 20.638 30.7415 20.3711 31.2954L20.8215 31.5125L21.2719 31.7295C21.6192 31.0089 21.7959 30.1161 21.828 29.0749L21.3282 29.0595ZM21.3628 27.9309L20.8629 27.919C20.8553 28.2389 20.8438 28.6131 20.8285 29.0417L21.3282 29.0595L21.8279 29.0773C21.8433 28.646 21.8549 28.2678 21.8626 27.9428L21.3628 27.9309ZM21.3628 26.9635L20.8629 26.9754C20.8704 27.29 20.8704 27.6045 20.8629 27.919L21.3628 27.9309L21.8626 27.9428C21.8705 27.6124 21.8705 27.282 21.8626 26.9516L21.3628 26.9635ZM21.3282 25.8349L20.8285 25.8528C20.8438 26.2813 20.8553 26.6555 20.8629 26.9754L21.3628 26.9635L21.8626 26.9516C21.8549 26.6267 21.8433 26.2484 21.8279 25.8171L21.3282 25.8349ZM20.096 22.3916L19.7576 22.7597C20.3773 23.3293 20.7695 24.3191 20.8286 25.8542L21.3282 25.8349L21.8278 25.8157C21.764 24.1569 21.3348 22.8512 20.4343 22.0234L20.096 22.3916ZM16.3762 21.3436V21.8436C18.0486 21.8436 19.1345 22.1869 19.7576 22.7597L20.096 22.3916L20.4343 22.0234C19.5373 21.1989 18.1433 20.8436 16.3762 20.8436V21.3436ZM11.9309 21.3436V21.8436H16.3762V21.3436V20.8436H11.9309V21.3436ZM11.9309 39.7697H12.4309V21.3436H11.9309H11.4309V39.7697H11.9309ZM15.3858 39.7697V39.2697H11.9309V39.7697V40.2697H15.3858V39.7697ZM16.3762 30.5106V30.0106H15.3858V30.5106V31.0106H16.3762V30.5106ZM17.8733 29.2438L17.3741 29.2165C17.3562 29.5439 17.2574 29.7141 17.1415 29.8122C17.0157 29.9187 16.7866 30.0106 16.3762 30.0106V30.5106V31.0106C16.9178 31.0106 17.4143 30.8913 17.7875 30.5756C18.1706 30.2514 18.3444 29.7881 18.3726 29.271L17.8733 29.2438ZM17.8733 25.6507L17.3743 25.6827C17.4498 26.8591 17.4498 28.0354 17.3743 29.2118L17.8733 29.2438L18.3723 29.2757C18.4504 28.0567 18.4504 26.8377 18.3723 25.6187L17.8733 25.6507ZM16.3762 24.3839V24.8839C16.7866 24.8839 17.0157 24.9758 17.1415 25.0823C17.2574 25.1803 17.3562 25.3505 17.3741 25.6779L17.8733 25.6507L18.3726 25.6234C18.3444 25.1063 18.1706 24.6431 17.7875 24.3189C17.4143 24.0031 16.9178 23.8839 16.3762 23.8839V24.3839ZM15.3858 24.3839V24.8839H16.3762V24.3839V23.8839H15.3858V24.3839ZM15.3858 30.5106H15.8858V24.3839H15.3858H14.8858V30.5106H15.3858ZM28.929 24.3839H28.429V39.7697H28.929H29.429V24.3839H28.929ZM31.8772 24.3839V23.8839H28.929V24.3839V24.8839H31.8772V24.3839ZM31.8772 21.3436H31.3772V24.3839H31.8772H32.3772V21.3436H31.8772ZM22.5029 21.3436V21.8436H31.8772V21.3436V20.8436H22.5029V21.3436ZM22.5029 24.3839H23.0029V21.3436H22.5029H22.0029V24.3839H22.5029ZM25.4741 24.3839V23.8839H22.5029V24.3839V24.8839H25.4741V24.3839ZM25.4741 39.7697H25.9741V24.3839H25.4741H24.9741V39.7697H25.4741ZM28.929 39.7697V39.2697H25.4741V39.7697V40.2697H28.929V39.7697ZM43.2553 40V40.5C44.9546 40.5 46.3058 40.1332 47.1925 39.2917L46.8484 38.929L46.5042 38.5663C45.8862 39.1528 44.8419 39.5 43.2553 39.5V40ZM40.4798 39.5278L40.2745 39.9837C41.0618 40.3384 42.0652 40.5 43.2553 40.5V40V39.5C42.1421 39.5 41.2952 39.3468 40.6852 39.072L40.4798 39.5278ZM38.9482 38.0422L38.4969 38.2576C38.8716 39.0427 39.4708 39.6216 40.2745 39.9837L40.4798 39.5278L40.6852 39.072C40.0916 38.8045 39.6696 38.393 39.3994 37.8269L38.9482 38.0422ZM38.3954 35.3704L37.8958 35.3913C37.9435 36.5349 38.135 37.4992 38.4969 38.2576L38.9482 38.0422L39.3994 37.8269C39.1165 37.234 38.9394 36.4171 38.895 35.3496L38.3954 35.3704ZM38.3493 33.1708L37.8494 33.1802C37.8648 34.0023 37.8802 34.7364 37.8955 35.3823L38.3954 35.3704L38.8953 35.3585C38.8799 34.7147 38.8646 33.9823 38.8492 33.1615L38.3493 33.1708ZM38.3263 30.6142H37.8263C37.8263 31.5 37.834 32.3553 37.8494 33.1802L38.3493 33.1708L38.8492 33.1615C38.8339 32.3433 38.8263 31.4942 38.8263 30.6142H38.3263ZM38.3493 28.0691L37.8494 28.0597C37.834 28.8769 37.8263 29.7284 37.8263 30.6142H38.3263H38.8263C38.8263 29.7342 38.8339 28.889 38.8492 28.0785L38.3493 28.0691ZM38.3954 25.9271L37.8955 25.9146C37.8802 26.5301 37.8648 27.2451 37.8494 28.0597L38.3493 28.0691L38.8492 28.0785C38.8646 27.2654 38.8799 26.5525 38.8952 25.9396L38.3954 25.9271ZM38.9597 23.1171L38.5067 22.9054C38.138 23.6942 37.9433 24.7039 37.8958 25.9073L38.3954 25.9271L38.895 25.9468C38.9396 24.8163 39.1211 23.9526 39.4127 23.3288L38.9597 23.1171ZM40.5029 21.5854L40.2975 21.1295C39.4877 21.4944 38.8865 22.0927 38.5067 22.9054L38.9597 23.1171L39.4127 23.3288C39.6931 22.7288 40.1208 22.306 40.7083 22.0413L40.5029 21.5854ZM43.2553 21.1132V20.6132C42.0794 20.6132 41.0841 20.7751 40.2975 21.1295L40.5029 21.5854L40.7083 22.0413C41.3189 21.7661 42.1586 21.6132 43.2553 21.6132V21.1132ZM46.7793 22.1843L47.1272 21.8251C46.2557 20.9809 44.9258 20.6132 43.2553 20.6132V21.1132V21.6132C44.8093 21.6132 45.8288 21.9596 46.4314 22.5434L46.7793 22.1843ZM48.0461 25.7198L48.545 25.6871C48.4341 23.9912 47.9938 22.6646 47.1272 21.8251L46.7793 22.1843L46.4314 22.5434C47.0389 23.1319 47.4431 24.1623 47.5471 25.7524L48.0461 25.7198ZM48.0921 26.9866H48.5921C48.5921 26.4858 48.5765 26.0483 48.5442 25.6765L48.0461 25.7198L47.5479 25.7631C47.577 26.0976 47.5921 26.5046 47.5921 26.9866H48.0921ZM48.0461 28.2534L48.5442 28.2967C48.5765 27.9248 48.5921 27.4873 48.5921 26.9866H48.0921H47.5921C47.5921 27.4685 47.577 27.8756 47.5479 28.21L48.0461 28.2534ZM44.5912 28.2534V28.7534H48.0461V28.2534V27.7534H44.5912V28.2534ZM44.6372 26.6641H44.1372C44.1372 27.2867 44.122 27.8037 44.0924 28.2177L44.5912 28.2534L45.0899 28.289C45.1217 27.8432 45.1372 27.3007 45.1372 26.6641H44.6372ZM44.5912 25.0749L44.0924 25.1105C44.122 25.5245 44.1372 26.0416 44.1372 26.6641H44.6372H45.1372C45.1372 26.0275 45.1217 25.4851 45.0899 25.0392L44.5912 25.0749ZM43.2553 23.9232V24.4232C43.6092 24.4232 43.7969 24.5042 43.8962 24.5898C43.9877 24.6688 44.0745 24.8123 44.0921 25.1048L44.5912 25.0749L45.0903 25.0449C45.0618 24.5696 44.9029 24.1374 44.5491 23.8324C44.2031 23.5342 43.7459 23.4232 43.2553 23.4232V23.9232ZM41.8503 25.0749L42.3494 25.1048C42.3665 24.8201 42.4541 24.6789 42.553 24.5978C42.6642 24.5067 42.8729 24.4232 43.2553 24.4232V23.9232V23.4232C42.7471 23.4232 42.2763 23.5316 41.9191 23.8244C41.5497 24.1272 41.3802 24.5619 41.3512 25.0449L41.8503 25.0749ZM41.7236 28.6219L42.2235 28.6308C42.2465 27.3463 42.2885 26.1706 42.3495 25.1034L41.8503 25.0749L41.3511 25.0463C41.2892 26.1288 41.2468 27.3178 41.2237 28.613L41.7236 28.6219ZM41.7236 32.4798L42.2235 32.4709C42.2006 31.1947 42.2006 29.9147 42.2235 28.6308L41.7236 28.6219L41.2237 28.613C41.2005 29.9087 41.2005 31.2007 41.2237 32.4888L41.7236 32.4798ZM41.8503 36.0154L42.3495 35.9868C42.2885 34.9196 42.2465 33.7477 42.2235 32.4709L41.7236 32.4798L41.2237 32.4888C41.2468 33.7763 41.2892 34.9614 41.3511 36.0439L41.8503 36.0154ZM43.2553 37.19V36.69C42.8748 36.69 42.6677 36.6055 42.5568 36.5128C42.4565 36.4289 42.3668 36.2814 42.3494 35.986L41.8503 36.0154L41.3511 36.0447C41.3798 36.5324 41.5473 36.9722 41.9154 37.2799C42.2728 37.5788 42.7451 37.69 43.2553 37.69V37.19ZM44.3148 36.8906L44.0111 36.4934C43.8636 36.6062 43.6294 36.69 43.2553 36.69V37.19V37.69C43.7718 37.69 44.2439 37.5742 44.6185 37.2878L44.3148 36.8906ZM44.7524 36.0154L44.254 35.9755C44.2325 36.2447 44.1399 36.3949 44.0111 36.4934L44.3148 36.8906L44.6185 37.2878C45.0118 36.987 45.2109 36.5538 45.2508 36.0552L44.7524 36.0154ZM44.7869 35.3129L44.2871 35.2994C44.2796 35.5784 44.2684 35.8024 44.2541 35.9738L44.7524 36.0154L45.2507 36.0569C45.2671 35.8598 45.279 35.6154 45.2868 35.3264L44.7869 35.3129ZM44.7869 34.4491L44.2871 34.4623C44.2946 34.7454 44.2946 35.0244 44.2871 35.2993L44.7869 35.3129L45.2868 35.3264C45.2947 35.0332 45.2947 34.7364 45.2868 34.436L44.7869 34.4491ZM44.7524 33.7582L44.2544 33.8034C44.2684 33.9567 44.2796 34.1748 44.2871 34.4623L44.7869 34.4491L45.2868 34.436C45.279 34.14 45.2671 33.8974 45.2503 33.7129L44.7524 33.7582ZM43.4856 33.7582V34.2582H44.7524V33.7582V33.2582H43.4856V33.7582ZM43.4856 30.7639H42.9856V33.7582H43.4856H43.9856V30.7639H43.4856ZM48.1152 30.7639V30.2639H43.4856V30.7639V31.2639H48.1152V30.7639ZM48.1497 33.0672L48.6497 33.0718C48.6574 32.2353 48.6458 31.4586 48.6147 30.7422L48.1152 30.7639L47.6156 30.7856C47.6459 31.4818 47.6573 32.2407 47.6497 33.0625L48.1497 33.0672ZM48.0921 35.3704L48.5917 35.3922C48.6227 34.6793 48.642 33.9057 48.6497 33.0718L48.1497 33.0672L47.6497 33.0625C47.6421 33.887 47.623 34.649 47.5926 35.3487L48.0921 35.3704ZM46.8484 38.929L47.1925 39.2917C48.0813 38.4483 48.5123 37.1068 48.5916 35.3936L48.0921 35.3704L47.5927 35.3473C47.5184 36.9508 47.1202 37.9817 46.5042 38.5663L46.8484 38.929ZM53.0211 35.9232L52.5237 35.8726L52.1321 39.719L52.6296 39.7697L53.127 39.8203L53.5185 35.9739L53.0211 35.9232ZM55.6929 35.9232V35.4232H53.0211V35.9232V36.4232H55.6929V35.9232ZM56.0845 39.7697L56.5819 39.719L56.1903 35.8726L55.6929 35.9232L55.1955 35.9739L55.587 39.8203L56.0845 39.7697ZM59.6315 39.7697V39.2697H56.0845V39.7697V40.2697H59.6315V39.7697ZM57.0749 21.3436L56.5796 21.4123L59.1362 39.8384L59.6315 39.7697L60.1267 39.701L57.5701 21.2749L57.0749 21.3436ZM51.6392 21.3436V21.8436H57.0749V21.3436V20.8436H51.6392V21.3436ZM49.0825 39.7697L49.5778 39.8384L52.1344 21.4123L51.6392 21.3436L51.1439 21.2749L48.5873 39.701L49.0825 39.7697ZM52.6296 39.7697V39.2697H49.0825V39.7697V40.2697H52.6296V39.7697ZM55.3704 32.8829V32.3829H53.3436V32.8829V33.3829H55.3704V32.8829ZM54.9559 28.8061L54.4584 28.8567L54.873 32.9335L55.3704 32.8829L55.8679 32.8323L55.4533 28.7556L54.9559 28.8061ZM54.6795 24.3839L54.1804 24.4151L54.4568 28.8373L54.9559 28.8061L55.4549 28.775L55.1785 24.3527L54.6795 24.3839ZM54.0345 24.3839V24.8839H54.6795V24.3839V23.8839H54.0345V24.3839ZM53.7582 28.8061L54.2572 28.8373L54.5336 24.4151L54.0345 24.3839L53.5355 24.3527L53.2591 28.775L53.7582 28.8061ZM53.3436 32.8829L53.841 32.9335L54.2556 28.8567L53.7582 28.8061L53.2607 28.7556L52.8461 32.8323L53.3436 32.8829ZM69.0058 36.7294H68.5058V39.7697H69.0058H69.5058V36.7294H69.0058ZM64.4683 36.7294V37.2294H69.0058V36.7294V36.2294H64.4683V36.7294ZM64.4683 21.3436H63.9683V36.7294H64.4683H64.9683V21.3436H64.4683ZM61.0134 21.3436V21.8436H64.4683V21.3436V20.8436H61.0134V21.3436ZM61.0134 39.7697H61.5134V21.3436H61.0134H60.5134V39.7697H61.0134ZM69.0058 39.7697V39.2697H61.0134V39.7697V40.2697H69.0058V39.7697ZM78.38 39.7697H78.88V36.7294H78.38H77.88V39.7697H78.38ZM70.3877 39.7697V40.2697H78.38V39.7697V39.2697H70.3877V39.7697ZM70.3877 21.3436H69.8877V39.7697H70.3877H70.8877V21.3436H70.3877ZM73.8426 21.3436V20.8436H70.3877V21.3436V21.8436H73.8426V21.3436ZM73.8426 36.7294H74.3426V21.3436H73.8426H73.3426V36.7294H73.8426ZM78.38 36.7294V36.2294H73.8426V36.7294V37.2294H78.38V36.7294ZM87.7313 36.7294H87.2313V39.7697H87.7313H88.2313V36.7294H87.7313ZM83.2169 36.7294V37.2294H87.7313V36.7294V36.2294H83.2169V36.7294ZM83.2169 31.9155H82.7169V36.7294H83.2169H83.7169V31.9155H83.2169ZM87.501 31.9155V31.4155H83.2169V31.9155V32.4155H87.501V31.9155ZM87.501 28.8752H87.001V31.9155H87.501H88.001V28.8752H87.501ZM83.2169 28.8752V29.3752H87.501V28.8752V28.3752H83.2169V28.8752ZM83.2169 24.3839H82.7169V28.8752H83.2169H83.7169V24.3839H83.2169ZM87.7313 24.3839V23.8839H83.2169V24.3839V24.8839H87.7313V24.3839ZM87.7313 21.3436H87.2313V24.3839H87.7313H88.2313V21.3436H87.7313ZM79.762 21.3436V21.8436H87.7313V21.3436V20.8436H79.762V21.3436ZM79.762 39.7697H80.262V21.3436H79.762H79.262V39.7697H79.762ZM87.7313 39.7697V39.2697H79.762V39.7697V40.2697H87.7313V39.7697ZM92.5681 39.7697H93.0681V33.5509H92.5681H92.0681V39.7697H92.5681ZM89.1132 39.7697V40.2697H92.5681V39.7697V39.2697H89.1132V39.7697ZM89.1132 21.3436H88.6132V39.7697H89.1132H89.6132V21.3436H89.1132ZM93.5585 21.3436V20.8436H89.1132V21.3436V21.8436H93.5585V21.3436ZM97.2783 22.3916L97.6167 22.0234C96.7196 21.1989 95.3257 20.8436 93.5585 20.8436V21.3436V21.8436C95.2309 21.8436 96.3168 22.1869 96.9399 22.7597L97.2783 22.3916ZM98.5106 25.8349L99.0102 25.8157C98.9464 24.1569 98.5172 22.8512 97.6167 22.0234L97.2783 22.3916L96.9399 22.7597C97.5596 23.3293 97.9519 24.3191 98.0109 25.8542L98.5106 25.8349ZM98.5451 26.9635L99.045 26.9516C99.0372 26.6267 99.0256 26.2484 99.0102 25.8171L98.5106 25.8349L98.0109 25.8528C98.0262 26.2813 98.0376 26.6555 98.0452 26.9754L98.5451 26.9635ZM98.5451 27.9309L99.045 27.9428C99.0528 27.6124 99.0528 27.282 99.045 26.9516L98.5451 26.9635L98.0452 26.9754C98.0527 27.29 98.0527 27.6045 98.0452 27.919L98.5451 27.9309ZM98.5106 29.0595L99.0102 29.0773C99.0256 28.646 99.0372 28.2678 99.045 27.9428L98.5451 27.9309L98.0452 27.919C98.0376 28.2389 98.0262 28.6131 98.0109 29.0417L98.5106 29.0595ZM98.0038 31.5125L98.4543 31.7296C98.8015 31.0089 98.9783 30.1161 99.0103 29.0749L98.5106 29.0595L98.0108 29.0441C97.9814 29.999 97.8203 30.7415 97.5534 31.2954L98.0038 31.5125ZM96.5988 32.975L96.8353 33.4156C97.557 33.0284 98.1008 32.4631 98.4543 31.7295L98.0038 31.5125L97.5534 31.2954C97.2927 31.8364 96.8998 32.2461 96.3624 32.5345L96.5988 32.975ZM98.7639 39.7697L99.2403 39.6179L97.0752 32.8232L96.5988 32.975L96.1224 33.1268L98.2875 39.9215L98.7639 39.7697ZM95.1017 39.7697V40.2697H98.7639V39.7697V39.2697H95.1017V39.7697ZM93.3512 33.5509L92.87 33.6863L94.6204 39.9052L95.1017 39.7697L95.583 39.6342L93.8325 33.4154L93.3512 33.5509ZM92.5681 33.5509V34.0509H93.3512V33.5509V33.0509H92.5681V33.5509ZM92.5681 30.5106V31.0106H93.5585V30.5106V30.0106H92.5681V30.5106ZM92.5681 24.3839H92.0681V30.5106H92.5681H93.0681V24.3839H92.5681ZM93.5585 24.3839V23.8839H92.5681V24.3839V24.8839H93.5585V24.3839ZM95.0557 25.6507L95.5549 25.6234C95.5267 25.1063 95.353 24.6431 94.9698 24.3189C94.5966 24.0031 94.1001 23.8839 93.5585 23.8839V24.3839V24.8839C93.969 24.8839 94.198 24.9758 94.3239 25.0823C94.4398 25.1803 94.5385 25.3505 94.5564 25.6779L95.0557 25.6507ZM95.0557 29.2438L95.5546 29.2757C95.6328 28.0567 95.6328 26.8377 95.5546 25.6187L95.0557 25.6507L94.5567 25.6827C94.6321 26.8591 94.6321 28.0354 94.5567 29.2118L95.0557 29.2438ZM93.5585 30.5106V31.0106C94.1001 31.0106 94.5966 30.8913 94.9698 30.5756C95.353 30.2513 95.5267 29.7881 95.5549 29.271L95.0557 29.2438L94.5564 29.2165C94.5385 29.5439 94.4398 29.7141 94.3239 29.8122C94.198 29.9187 93.969 30.0106 93.5585 30.0106V30.5106ZM106.595 39.7697H107.095V35.3704H106.595H106.095V39.7697H106.595ZM103.14 39.7697V40.2697H106.595V39.7697V39.2697H103.14V39.7697ZM103.14 35.3704H102.64V39.7697H103.14H103.64V35.3704H103.14ZM102.887 34.334L102.401 34.4527L102.654 35.4892L103.14 35.3704L103.626 35.2517L103.372 34.2152L102.887 34.334ZM99.6852 21.3436L99.1997 21.4632L102.401 34.4536L102.887 34.334L103.372 34.2143L100.171 21.2239L99.6852 21.3436ZM103.209 21.3436V20.8436H99.6852V21.3436V21.8436H103.209V21.3436ZM104.2 25.8119L104.688 25.7037L103.697 21.2354L103.209 21.3436L102.721 21.4518L103.711 25.9201L104.2 25.8119ZM104.545 31.2246L105.044 31.1927L104.699 25.7801L104.2 25.8119L103.701 25.8438L104.046 31.2564L104.545 31.2246ZM105.19 31.2246V30.7246H104.545V31.2246V31.7246H105.19V31.2246ZM105.536 25.8119L105.037 25.7801L104.691 31.1927L105.19 31.2246L105.689 31.2564L106.034 25.8438L105.536 25.8119ZM106.526 21.3436L106.038 21.2354L105.047 25.7037L105.536 25.8119L106.024 25.9201L107.014 21.4518L106.526 21.3436ZM110.05 21.3436V20.8436H106.526V21.3436V21.8436H110.05V21.3436ZM106.848 34.3109L107.334 34.4308L110.535 21.4634L110.05 21.3436L109.564 21.2237L106.363 34.1911L106.848 34.3109ZM106.595 35.3704L107.081 35.4867L107.335 34.4272L106.848 34.3109L106.362 34.1947L106.109 35.2542L106.595 35.3704Z" fill="black"/>
</svg>
